<?xml version="1.0" encoding="utf-8"?>
<!-- Generator: Adobe Illustrator 22.0.1, SVG Export Plug-In . SVG Version: 6.00 Build 0)  -->
<svg version="1.1" id="Layer_1" xmlns="http://www.w3.org/2000/svg" xmlns:xlink="http://www.w3.org/1999/xlink" x="0px" y="0px"
	 viewBox="0 0 220 220" style="enable-background:new 0 0 220 220;" xml:space="preserve">
<style type="text/css">
	.st0{fill:#2C3E50;}
	.st1{fill:#00BF9A;}
</style>
<g>
	<path class="st0" d="M204.7,219.7H55c-8.3,0-15-6.7-15-15v-149c0-8.3,6.7-15,15-15h149.7c8.3,0,15,6.7,15,15v149
		C219.7,212.9,212.9,219.7,204.7,219.7z M55,50.7c-2.8,0-5,2.2-5,5v149c0,2.8,2.2,5,5,5h149.7c2.8,0,5-2.2,5-5v-149c0-2.8-2.2-5-5-5
		H55z"/>
</g>
<g>
	<path class="st1" d="M25,189.7c-2.8,0-5-2.2-5-5V52.5C20,35,34.3,20.7,51.9,20.7h122.8c2.8,0,5,2.2,5,5s-2.2,5-5,5H51.9
		C39.8,30.7,30,40.5,30,52.5v132.1C30,187.4,27.8,189.7,25,189.7z"/>
</g>
<g>
	<path class="st1" d="M5,169.7c-2.8,0-5-2.2-5-5V50.3C0,22.9,22.2,0.7,49.6,0.7h105.1c2.8,0,5,2.2,5,5s-2.2,5-5,5H49.6
		C27.8,10.7,10,28.4,10,50.3v114.4C10,167.4,7.8,169.7,5,169.7z"/>
</g>
<g>
	<path class="st0" d="M124.7,189.7H75c-2.8,0-5-2.2-5-5s2.2-5,5-5h49.7c2.8,0,5,2.2,5,5S127.4,189.7,124.7,189.7z"/>
</g>
<g>
	<path class="st0" d="M184.7,169.7H75c-2.8,0-5-2.2-5-5s2.2-5,5-5h109.7c2.8,0,5,2.2,5,5S187.4,169.7,184.7,169.7z"/>
</g>
<g>
	<path class="st0" d="M184.7,149.7H75c-2.8,0-5-2.2-5-5s2.2-5,5-5h109.7c2.8,0,5,2.2,5,5S187.4,149.7,184.7,149.7z"/>
</g>
<g>
	<path class="st0" d="M124.7,120.7H75c-2.8,0-5-2.2-5-5s2.2-5,5-5h49.7c2.8,0,5,2.2,5,5S127.4,120.7,124.7,120.7z"/>
</g>
<g>
	<path class="st0" d="M184.7,80.7H75c-2.8,0-5-2.2-5-5s2.2-5,5-5h109.7c2.8,0,5,2.2,5,5S187.4,80.7,184.7,80.7z"/>
</g>
<g>
	<path class="st0" d="M184.7,100.7H75c-2.8,0-5-2.2-5-5s2.2-5,5-5h109.7c2.8,0,5,2.2,5,5S187.4,100.7,184.7,100.7z"/>
</g>
</svg>
