<?xml version="1.0" encoding="UTF-8" standalone="no"?>
<!-- Generator: Adobe Illustrator 22.0.1, SVG Export Plug-In . SVG Version: 6.00 Build 0)  -->

<svg
   xmlns:dc="http://purl.org/dc/elements/1.1/"
   xmlns:cc="http://creativecommons.org/ns#"
   xmlns:rdf="http://www.w3.org/1999/02/22-rdf-syntax-ns#"
   xmlns:svg="http://www.w3.org/2000/svg"
   xmlns="http://www.w3.org/2000/svg"
   xmlns:sodipodi="http://sodipodi.sourceforge.net/DTD/sodipodi-0.dtd"
   xmlns:inkscape="http://www.inkscape.org/namespaces/inkscape"
   version="1.1"
   id="Layer_1"
   x="0px"
   y="0px"
   viewBox="0 0 220 220"
   style="enable-background:new 0 0 220 220;"
   xml:space="preserve"
   inkscape:version="0.91 r13725"
   sodipodi:docname="icon_dynamic-content_B.svg"><metadata
     id="metadata41"><rdf:RDF><cc:Work
         rdf:about=""><dc:format>image/svg+xml</dc:format><dc:type
           rdf:resource="http://purl.org/dc/dcmitype/StillImage" /></cc:Work></rdf:RDF></metadata><defs
     id="defs39" /><sodipodi:namedview
     pagecolor="#ffffff"
     bordercolor="#666666"
     borderopacity="1"
     objecttolerance="10"
     gridtolerance="10"
     guidetolerance="10"
     inkscape:pageopacity="0"
     inkscape:pageshadow="2"
     inkscape:window-width="1920"
     inkscape:window-height="986"
     id="namedview37"
     showgrid="false"
     inkscape:zoom="1.0727273"
     inkscape:cx="110"
     inkscape:cy="110"
     inkscape:window-x="-11"
     inkscape:window-y="-11"
     inkscape:window-maximized="1"
     inkscape:current-layer="Layer_1" /><style
     type="text/css"
     id="style3">
	.st0{fill:#2C3E50;}
	.st1{fill:#00BF9A;}
</style><g
     id="g5"><path
       class="st0"
       d="M205,220H15c-8.3,0-15-6.7-15-15v-60c0-2.8,2.2-5,5-5s5,2.2,5,5v60c0,2.8,2.2,5,5,5h190c2.8,0,5-2.2,5-5V15   c0-2.8-2.2-5-5-5h-90.1c-2.8,0-5-2.2-5-5s2.2-5,5-5H205c8.3,0,15,6.7,15,15v190C220,213.3,213.3,220,205,220z"
       id="path7" /></g><g
     id="g9"><path
       class="st0"
       d="M175,50h-60c-2.8,0-5-2.2-5-5s2.2-5,5-5h60c2.8,0,5,2.2,5,5S177.8,50,175,50z"
       id="path11" /></g><g
     id="g13"><path
       class="st0"
       d="M175,80h-60c-2.8,0-5-2.2-5-5s2.2-5,5-5h60c2.8,0,5,2.2,5,5S177.8,80,175,80z"
       id="path15" /></g><g
     id="g17"><path
       class="st0"
       d="M175,110h-60c-2.8,0-5-2.2-5-5s2.2-5,5-5h60c2.8,0,5,2.2,5,5S177.8,110,175,110z"
       id="path19" /></g><g
     id="g21"><path
       class="st0"
       d="M175,150H45c-2.8,0-5-2.2-5-5s2.2-5,5-5h130c2.8,0,5,2.2,5,5S177.8,150,175,150z"
       id="path23" /></g><g
     id="g25"><path
       class="st0"
       d="M105,180H45c-2.8,0-5-2.2-5-5s2.2-5,5-5h60c2.8,0,5,2.2,5,5S107.8,180,105,180z"
       id="path27" /></g><g
     id="g29"
     style="fill:#64a19d;fill-opacity:1"><path
       class="st1"
       d="M45,50c-13.8,0-25-11.2-25-25S31.2,0,45,0s25,11.2,25,25S58.8,50,45,50z M45,10c-8.3,0-15,6.7-15,15   s6.7,15,15,15s15-6.7,15-15S53.3,10,45,10z"
       id="path31"
       style="fill:#64a19d;fill-opacity:1" /></g><g
     id="g33"
     style="fill:#64a19d;fill-opacity:1"><path
       class="st1"
       d="M90,110H0v-5c0-24.8,20.2-45,45-45s45,20.2,45,45V110z M10.4,100h69.3c-2.4-16.9-17-30-34.6-30   S12.8,83.1,10.4,100z"
       id="path35"
       style="fill:#64a19d;fill-opacity:1" /></g></svg>