<?xml version="1.0" encoding="UTF-8" standalone="no"?>
<!-- Generator: Adobe Illustrator 22.0.1, SVG Export Plug-In . SVG Version: 6.00 Build 0)  -->

<svg
   xmlns:dc="http://purl.org/dc/elements/1.1/"
   xmlns:cc="http://creativecommons.org/ns#"
   xmlns:rdf="http://www.w3.org/1999/02/22-rdf-syntax-ns#"
   xmlns:svg="http://www.w3.org/2000/svg"
   xmlns="http://www.w3.org/2000/svg"
   xmlns:sodipodi="http://sodipodi.sourceforge.net/DTD/sodipodi-0.dtd"
   xmlns:inkscape="http://www.inkscape.org/namespaces/inkscape"
   version="1.1"
   id="Layer_1"
   x="0px"
   y="0px"
   viewBox="0 0 220 220"
   style="enable-background:new 0 0 220 220;"
   xml:space="preserve"
   inkscape:version="0.91 r13725"
   sodipodi:docname="icon_benchmarking_p-1.svg"><metadata
     id="metadata17"><rdf:RDF><cc:Work
         rdf:about=""><dc:format>image/svg+xml</dc:format><dc:type
           rdf:resource="http://purl.org/dc/dcmitype/StillImage" /></cc:Work></rdf:RDF></metadata><defs
     id="defs15" /><sodipodi:namedview
     pagecolor="#ffffff"
     bordercolor="#666666"
     borderopacity="1"
     objecttolerance="10"
     gridtolerance="10"
     guidetolerance="10"
     inkscape:pageopacity="0"
     inkscape:pageshadow="2"
     inkscape:window-width="1920"
     inkscape:window-height="986"
     id="namedview13"
     showgrid="false"
     inkscape:zoom="1.0727273"
     inkscape:cx="110"
     inkscape:cy="110"
     inkscape:window-x="-11"
     inkscape:window-y="-11"
     inkscape:window-maximized="1"
     inkscape:current-layer="Layer_1" /><style
     type="text/css"
     id="style3">
	.st0{fill:#2C3E50;}
	.st1{fill:#00BF9A;}
</style><path
     class="st0"
     d="M177.8,54.9c0.9,0.7,2,1,3,1c1.5,0,3-0.7,4-2l16.6-23.3c1,0.2,2.1,0.4,3.2,0.4c8.3,0,15-6.7,15-15  s-6.7-15-15-15s-15,6.7-15,15c0,3.5,1.2,6.7,3.3,9.3l-16.1,22.6C175.1,50.1,175.6,53.2,177.8,54.9z M204.6,11c2.8,0,5,2.2,5,5  s-2.2,5-5,5s-5-2.2-5-5S201.9,11,204.6,11z"
     id="path5" /><path
     class="st1"
     d="M134.9,119.6l22.9-30.2c1.7-2.2,1.2-5.3-1-7s-5.3-1.2-7,1l-22.8,30c-1.8-0.8-3.9-1.3-6-1.3  c-1.5,0-3,0.2-4.4,0.7l-7.3-13c2-2.5,3.2-5.7,3.2-9.2c0-8.3-6.7-15-15-15s-15,6.7-15,15c0,2.7,0.8,5.3,2,7.5l-23.9,31.4  c-1.7,2.2-1.2,5.3,1,7c0.9,0.7,2,1,3,1c1.5,0,3-0.7,4-2l23.5-31c1.7,0.6,3.4,1,5.3,1c1.2,0,2.3-0.1,3.4-0.4l7.6,13.6  c-1.6,2.4-2.5,5.2-2.5,8.3c0,8.3,6.7,15,15,15s15-6.7,15-15c0-2.5-0.6-4.8-1.7-6.9C134.6,119.9,134.9,119.8,134.9,119.6z M92.7,90.5  c0-2.8,2.2-5,5-5s5,2.2,5,5s-2.2,5-5,5S92.7,93.2,92.7,90.5z M121.1,131.9c-2.8,0-5-2.2-5-5s2.2-5,5-5s5,2.2,5,5  S123.9,131.9,121.1,131.9z"
     id="path7"
     style="fill:#64a19d;fill-opacity:1" /><path
     class="st0"
     d="M41.5,163.2c-2.2-1.7-5.3-1.2-7,1l-18.2,25.4c-0.5-0.1-1.1-0.1-1.6-0.1c-8.3,0-15,6.7-15,15s6.7,15,15,15  s15-6.7,15-15c0-4-1.6-7.7-4.2-10.4l17-23.8C44,167.9,43.7,164.9,41.5,163.2z M14.6,209.4c-2.8,0-5-2.2-5-5s2.2-5,5-5s5,2.2,5,5  S17.5,209.4,14.6,209.4z"
     id="path9" /><path
     class="st0"
     d="M215.4,194.4l-24.3-23.5c-2.8-2.9-6.7-4.5-10.8-4.5l0,0c-2.6,0-5.1,0.7-7.3,1.9l-7-7  c12.4-13.5,19.9-31.5,19.9-51.2c0-41.9-34.1-76-76-76s-76,34.1-76,76s34.1,76,76,76c18.6,0,35.6-6.7,48.9-17.9l7.6,7.6  c-0.7,1.7-1.1,3.5-1.1,5.4c0,4,1.5,7.8,4.3,10.7l24.3,23.5c2.8,2.9,6.7,4.5,10.8,4.5c3.9,0,7.7-1.5,10.5-4.3  c2.9-2.8,4.5-6.5,4.5-10.5C219.8,201.2,218.2,197.4,215.4,194.4z M44,110.1c0-36.4,29.6-66,66-66s66,29.6,66,66s-29.6,66-66,66  S44,146.4,44,110.1z M208.2,208.6c-1,0.9-2.2,1.4-3.5,1.4s-2.6-0.5-3.6-1.5l-24.3-23.6c-1.9-2-1.9-5.1,0.1-7.1  c1-0.9,2.2-1.4,3.5-1.4s2.6,0.5,3.6,1.5l24.3,23.6C210.2,203.4,210.2,206.7,208.2,208.6z"
     id="path11" /></svg>