<?xml version="1.0" encoding="UTF-8" standalone="no"?>
<!-- Generator: Adobe Illustrator 22.0.1, SVG Export Plug-In . SVG Version: 6.00 Build 0)  -->

<svg
   xmlns:dc="http://purl.org/dc/elements/1.1/"
   xmlns:cc="http://creativecommons.org/ns#"
   xmlns:rdf="http://www.w3.org/1999/02/22-rdf-syntax-ns#"
   xmlns:svg="http://www.w3.org/2000/svg"
   xmlns="http://www.w3.org/2000/svg"
   xmlns:sodipodi="http://sodipodi.sourceforge.net/DTD/sodipodi-0.dtd"
   xmlns:inkscape="http://www.inkscape.org/namespaces/inkscape"
   version="1.1"
   id="Layer_1"
   x="0px"
   y="0px"
   viewBox="0 0 220 220"
   style="enable-background:new 0 0 220 220;"
   xml:space="preserve"
   inkscape:version="0.91 r13725"
   sodipodi:docname="icon_agency_p.svg"><metadata
     id="metadata21"><rdf:RDF><cc:Work
         rdf:about=""><dc:format>image/svg+xml</dc:format><dc:type
           rdf:resource="http://purl.org/dc/dcmitype/StillImage" /></cc:Work></rdf:RDF></metadata><defs
     id="defs19" /><sodipodi:namedview
     pagecolor="#ffffff"
     bordercolor="#666666"
     borderopacity="1"
     objecttolerance="10"
     gridtolerance="10"
     guidetolerance="10"
     inkscape:pageopacity="0"
     inkscape:pageshadow="2"
     inkscape:window-width="1920"
     inkscape:window-height="986"
     id="namedview17"
     showgrid="false"
     inkscape:zoom="1.0727273"
     inkscape:cx="110"
     inkscape:cy="110"
     inkscape:window-x="-11"
     inkscape:window-y="-11"
     inkscape:window-maximized="1"
     inkscape:current-layer="Layer_1" /><style
     type="text/css"
     id="style3">
	.st0{fill:#00BF9A;}
	.st1{fill:#2C3E50;}
</style><path
     class="st0"
     d="M142,66.2c0-12.2-6.8-22.8-16.8-28.2c4.2-4,6.9-9.7,6.9-16c0-12.2-9.9-22-22-22S88,9.9,88,22  c0,6.3,2.6,11.9,6.9,16C84.8,43.4,78,54,78,66.2v5h64V66.2z M110,10c6.6,0,12,5.4,12,12s-5.4,12-12,12s-12-5.4-12-12  S103.4,10,110,10z M88.6,61.2c2.3-9.7,11-17,21.4-17s19.2,7.3,21.4,17H88.6z"
     id="path5"
     style="fill:#64a19d;fill-opacity:1" /><g
     id="g7"><path
       class="st1"
       d="M125.2,186.8c4.2-4,6.9-9.7,6.9-16c0-12.2-9.9-22-22-22s-22,9.9-22,22c0,6.3,2.6,11.9,6.9,16   c-10,5.4-16.8,16-16.8,28.2v5h64v-5C142,202.8,135.2,192.2,125.2,186.8z M110,158.8c6.6,0,12,5.4,12,12s-5.4,12-12,12   s-12-5.4-12-12S103.4,158.8,110,158.8z M88.6,210c2.3-9.7,11-17,21.4-17s19.2,7.3,21.4,17H88.6z"
       id="path9" /><path
       class="st1"
       d="M203.2,186.8c4.2-4,6.9-9.7,6.9-16c0-12.2-9.9-22-22-22s-22,9.9-22,22c0,6.3,2.6,11.9,6.9,16   c-10,5.4-16.8,16-16.8,28.2v5h64v-5C220,202.8,213.2,192.2,203.2,186.8z M188,158.8c6.6,0,12,5.4,12,12s-5.4,12-12,12   s-12-5.4-12-12S181.4,158.8,188,158.8z M166.6,210c2.3-9.7,11-17,21.4-17s19.2,7.3,21.4,17H166.6z"
       id="path11" /><path
       class="st1"
       d="M47.2,186.8c4.2-4,6.9-9.7,6.9-16c0-12.2-9.9-22-22-22s-22,9.9-22,22c0,6.3,2.6,11.9,6.9,16   c-10.2,5.4-17,16-17,28.2v5h64v-5C64,202.8,57.2,192.2,47.2,186.8z M32,158.8c6.6,0,12,5.4,12,12s-5.4,12-12,12s-12-5.4-12-12   S25.4,158.8,32,158.8z M10.6,210c2.3-9.7,11-17,21.4-17s19.2,7.3,21.4,17H10.6z"
       id="path13" /><path
       class="st1"
       d="M32,129.2c3,0,5.5-2.5,5.5-5.5c0-12,9.8-21.8,21.8-21.8h45.2v21.8c0,3,2.5,5.5,5.5,5.5s5.5-2.5,5.5-5.5v-21.8   h45.2c12,0,21.8,9.8,21.8,21.8c0,3,2.5,5.5,5.5,5.5s5.5-2.5,5.5-5.5c0-18.1-14.7-32.8-32.8-32.8H59.3c-18.1,0-32.8,14.7-32.8,32.8   C26.5,126.7,29,129.2,32,129.2z"
       id="path15" /></g></svg>