<?xml version="1.0" encoding="utf-8"?>
<!-- Generator: Adobe Illustrator 22.0.1, SVG Export Plug-In . SVG Version: 6.00 Build 0)  -->
<svg version="1.1" id="Layer_1" xmlns="http://www.w3.org/2000/svg" xmlns:xlink="http://www.w3.org/1999/xlink" x="0px" y="0px"
	 viewBox="0 0 220 220" style="enable-background:new 0 0 220 220;" xml:space="preserve">
<style type="text/css">
	.st0{fill:#2C3E50;}
	.st1{fill:#00BF9A;}
</style>
<g>
	<g>
		<path class="st0" d="M143,220c-1.7,0-3.4-0.9-4.3-2.5c-6.3-10.8-17.6-17.7-28.7-17.7s-22.4,7-28.7,17.7c-1.2,2-3.5,2.9-5.7,2.3
			c-7.5-2.2-14.8-5.3-21.8-9c-2-1.1-3.1-3.4-2.5-5.7c3-11.9,0.7-21.1-7.3-29.1s-17.3-10.3-29.1-7.2c-2.2,0.6-4.6-0.4-5.7-2.5
			c-3.7-6.9-6.8-14.2-9-21.8c-0.7-2.2,0.3-4.6,2.3-5.7c10.8-6.3,17.8-17.6,17.8-28.7c0-13.1-9.7-21.5-17.8-26.2
			c-2-1.2-2.9-3.5-2.3-5.7c2.3-7.9,5.4-15.2,9.1-22c1.1-2,3.4-3,5.6-2.4c10.4,2.7,19.7-0.4,29-9.7c8-8.1,10.3-17.3,7.2-29.1
			c-0.6-2.2,0.4-4.6,2.5-5.7c6.9-3.7,14.2-6.8,21.8-9c2.2-0.7,4.6,0.3,5.7,2.3c6.3,10.8,17.6,17.7,28.7,17.7s22.4-7,28.7-17.7
			c1.2-2,3.5-2.9,5.7-2.3c7.6,2.3,15,5.3,21.8,9c2,1.1,3,3.4,2.5,5.7c-2.8,11.7-0.5,21,7.5,29c9.4,9.4,18.6,12.5,29.1,9.7
			c2.2-0.6,4.6,0.4,5.7,2.5c3.7,6.8,6.7,14.1,9,21.8c0.7,2.2-0.3,4.6-2.3,5.7c-8.1,4.8-17.7,13.2-17.7,26.2
			c0,13.1,9.6,21.5,17.7,26.2c2,1.2,2.9,3.5,2.3,5.8c-2.3,7.6-5.3,14.9-9,21.8c-1.1,2-3.4,3.1-5.7,2.5c-10.5-2.7-19.7,0.4-29.1,9.7
			c-8,8.1-10.3,17.3-7.2,29.1c0.6,2.2-0.4,4.6-2.5,5.7c-6.9,3.7-14.2,6.8-21.8,9C143.9,219.9,143.5,220,143,220z M109.9,189.8
			c13.4,0,26.8,7.4,35.2,19.3c4.5-1.5,8.9-3.3,13-5.4c-2.5-13.6,1-25,10.7-34.8c10.7-10.7,22.4-15.1,34.7-13.2
			c2.1-4.2,3.9-8.6,5.4-13.1c-12.4-8.4-19.2-19.9-19.2-32.7c0-12.7,6.8-24.2,19.2-32.7c-1.5-4.5-3.3-8.9-5.4-13.1
			c-12.4,1.9-24.1-2.5-34.7-13.2c-9.6-9.6-13.2-21.3-10.7-34.8c-4.2-2.1-8.6-3.9-13.1-5.4C136.6,22.5,123.2,30,109.8,30
			S83,22.6,74.6,10.7c-4.5,1.5-8.9,3.3-13,5.4c2.5,13.6-1,25-10.7,34.8C40.4,61.8,28.7,66.2,16.4,64.3c-2.1,4.2-3.9,8.5-5.4,13.1
			c12.5,8.4,19.3,19.9,19.3,32.7c0,13.4-7.5,26.8-19.3,35.2c1.5,4.5,3.3,8.9,5.4,13.1c13.5-2.4,25.1,1.1,34.7,10.7
			c9.6,9.5,13.2,21.2,10.7,34.8c4.2,2.1,8.6,3.9,13.1,5.4C83.1,197.3,96.6,189.8,109.9,189.8z"/>
	</g>
</g>
<g>
	<g>
		<path class="st1" d="M110,120c-5.5,0-10-4.5-10-10s4.5-10,10-10s10,4.5,10,10S115.5,120,110,120z"/>
	</g>
</g>
<g>
	<g>
		<path class="st0" d="M110,150c-22.1,0-40-17.9-40-40s17.9-40,40-40s40,17.9,40,40S132.1,150,110,150z M110,80
			c-16.5,0-30,13.5-30,30s13.5,30,30,30s30-13.5,30-30S126.5,80,110,80z"/>
	</g>
</g>
<g>
	<g>
		<path class="st1" d="M110,180c-18.8,0-36.4-7.3-49.5-20.5C47.3,146.4,40,128.8,40,110s7.3-36.4,20.5-49.5S91.2,40,110,40
			s36.4,7.3,49.5,20.5C172.7,73.6,180,91.2,180,110s-7.3,36.4-20.5,49.5C146.4,172.7,128.8,180,110,180z M110,50
			c-33.1,0-60,26.9-60,60s26.9,60,60,60s60-26.9,60-60S143.1,50,110,50z"/>
	</g>
</g>
</svg>
