<?xml version="1.0" encoding="utf-8"?>
<!-- Generator: Adobe Illustrator 22.0.1, SVG Export Plug-In . SVG Version: 6.00 Build 0)  -->
<svg version="1.1" id="Layer_1" xmlns="http://www.w3.org/2000/svg" xmlns:xlink="http://www.w3.org/1999/xlink" x="0px" y="0px"
	 viewBox="0 0 220 220" style="enable-background:new 0 0 220 220;" xml:space="preserve">
<style type="text/css">
	.st0{fill:#2C3E50;}
	.st1{fill:#00BF9A;}
</style>
<g>
	<path class="st0" d="M111.2,0.4c-26.3,0-51.8,9.6-71.7,27C19.8,44.6,6.9,68.3,3.2,94c-0.4,2.7,1.5,5.3,4.2,5.7
		c2.7,0.4,5.3-1.5,5.7-4.2c3.4-23.4,15.1-44.9,33-60.5c18-15.8,41.2-24.5,65.1-24.5c54.6,0,99.1,44.5,99.1,99.3
		s-44.4,99.3-99.1,99.3c-36.2,0-69.4-19.7-86.9-51.5l2.7,0.7c2.7,0.7,5.4-0.9,6.1-3.6c0.7-2.7-0.9-5.4-3.6-6.1l-19.3-4.9L5.3,163
		c-0.7,2.7,0.9,5.4,3.6,6.1c0.4,0.1,0.8,0.2,1.2,0.2c2.2,0,4.3-1.5,4.8-3.8l0.7-2.8c19.2,34.8,55.8,56.4,95.5,56.4
		c60.1,0,109.1-49,109.1-109.3C220.2,49.4,171.3,0.4,111.2,0.4z"/>
	<path class="st1" d="M110.2,26L110.2,26c-2.8,0-5,2.2-5,5l-0.2,79l0,0c0,0.3,0,0.7,0.1,1c0,0.1,0.1,0.2,0.1,0.3
		c0.1,0.2,0.1,0.4,0.2,0.6s0.2,0.4,0.3,0.6c0,0.1,0.1,0.2,0.1,0.2c0.2,0.3,0.4,0.5,0.6,0.8l0,0l34.8,34.3c1,1,2.2,1.4,3.5,1.4
		s2.6-0.5,3.6-1.5c1.9-2,1.9-5.1-0.1-7.1L115,107.9l0.2-76.9C115.2,28.2,112.9,26,110.2,26z"/>
</g>
</svg>
