<?xml version="1.0" encoding="utf-8"?>
<!-- Generator: Adobe Illustrator 22.0.1, SVG Export Plug-In . SVG Version: 6.00 Build 0)  -->
<svg version="1.1" id="Layer_1" xmlns="http://www.w3.org/2000/svg" xmlns:xlink="http://www.w3.org/1999/xlink" x="0px" y="0px"
	 viewBox="0 0 220 220" style="enable-background:new 0 0 220 220;" xml:space="preserve">
<style type="text/css">
	.st0{fill:#2C3E50;}
	.st1{fill:#00BF9A;}
</style>
<g>
	<path class="st0" d="M196.7,39.1H61.8c-12.7,0-23,10.3-23,23v134.1c0,12.7,10.3,23,23,23h134.9c12.7,0,23-10.3,23-23V62.1
		C219.7,49.4,209.4,39.1,196.7,39.1z M209.7,196.2c0,7.2-5.8,13-13,13H61.8c-7.2,0-13-5.8-13-13V62.1c0-7.2,5.8-13,13-13h134.9
		c7.2,0,13,5.8,13,13V196.2L209.7,196.2z"/>
	<path class="st0" d="M176.4,144.1h-1.3v-11.6c0-4.7-3.8-8.6-8.6-8.6l-32.5-0.1v-9.6h1.4c4.7,0,8.6-3.8,8.6-8.6v-13
		c0-4.7-3.8-8.6-8.6-8.6h-12.7c-4.7,0-8.6,3.8-8.6,8.6v13c0,4.7,3.8,8.6,8.6,8.6h1.4v9.6l-31.9-0.1c-4.7,0-8.6,3.8-8.6,8.6v11.8
		h-1.3c-4.7,0-8.6,3.8-8.6,8.6v13c0,4.7,3.8,8.6,8.6,8.6H95c4.7,0,8.6-3.8,8.6-8.6v-13c0-4.7-3.8-8.6-8.6-8.6h-1.4v-10.4l30.5,0.1
		v10.3h-1.4c-4.7,0-8.6,3.8-8.6,8.6v13c0,4.7,3.8,8.6,8.6,8.6h12.7c4.7,0,8.6-3.8,8.6-8.6v-13c0-4.7-3.8-8.6-8.6-8.6H134v-10.3
		l31,0.1v10.2h-1.4c-4.7,0-8.6,3.8-8.6,8.6v13c0,4.7,3.8,8.6,8.6,8.6h12.7c4.7,0,8.6-3.8,8.6-8.6v-13
		C184.9,148,181.1,144.1,176.4,144.1z M124.1,94.1h9.9v10.1h-9.9V94.1z M93.4,164.3h-9.8v-10.1h9.9L93.4,164.3L93.4,164.3z
		 M133.9,164.3H124v-10.1h9.9V164.3z M174.9,164.3H165v-10.1h9.9V164.3z"/>
</g>
<g>
	<path class="st1" d="M23.8,201.2c-2.8,0-5-2.2-5-5V56.3c0-20.5,16.7-37.2,37.2-37.2h139.7c2.8,0,5,2.2,5,5s-2.2,5-5,5H56.1
		c-15,0-27.2,12.2-27.2,27.2v139.9C28.8,199,26.6,201.2,23.8,201.2z"/>
</g>
<g>
	<path class="st1" d="M4.8,182.2c-2.8,0-5-2.2-5-5V50.8c0-28,22.8-50.7,50.8-50.7h125.1c2.8,0,5,2.2,5,5s-2.2,5-5,5H50.6
		c-22.5,0-40.8,18.2-40.8,40.7v126.4C9.8,180,7.6,182.2,4.8,182.2z"/>
</g>
</svg>
