<?xml version="1.0" encoding="UTF-8" standalone="no"?>
<!-- Generator: Adobe Illustrator 22.0.1, SVG Export Plug-In . SVG Version: 6.00 Build 0)  -->

<svg
   xmlns:dc="http://purl.org/dc/elements/1.1/"
   xmlns:cc="http://creativecommons.org/ns#"
   xmlns:rdf="http://www.w3.org/1999/02/22-rdf-syntax-ns#"
   xmlns:svg="http://www.w3.org/2000/svg"
   xmlns="http://www.w3.org/2000/svg"
   xmlns:sodipodi="http://sodipodi.sourceforge.net/DTD/sodipodi-0.dtd"
   xmlns:inkscape="http://www.inkscape.org/namespaces/inkscape"
   version="1.1"
   id="Layer_1"
   x="0px"
   y="0px"
   viewBox="0 0 400 400"
   style="enable-background:new 0 0 400 400;"
   xml:space="preserve"
   inkscape:version="0.91 r13725"
   sodipodi:docname="icon_fill-out-form.svg"><metadata
     id="metadata67"><rdf:RDF><cc:Work
         rdf:about=""><dc:format>image/svg+xml</dc:format><dc:type
           rdf:resource="http://purl.org/dc/dcmitype/StillImage" /></cc:Work></rdf:RDF></metadata><defs
     id="defs65" /><sodipodi:namedview
     pagecolor="#ffffff"
     bordercolor="#666666"
     borderopacity="1"
     objecttolerance="10"
     gridtolerance="10"
     guidetolerance="10"
     inkscape:pageopacity="0"
     inkscape:pageshadow="2"
     inkscape:window-width="1920"
     inkscape:window-height="986"
     id="namedview63"
     showgrid="false"
     inkscape:zoom="0.59"
     inkscape:cx="200"
     inkscape:cy="200"
     inkscape:window-x="-11"
     inkscape:window-y="-11"
     inkscape:window-maximized="1"
     inkscape:current-layer="Layer_1" /><style
     type="text/css"
     id="style3">
	.st0{fill:#2C3E50;}
	.st1{fill:#00BF9A;}
</style><g
     id="g5"><path
       class="st0"
       d="M400,400H140V197.5c0-2.8,2.2-5,5-5s5,2.2,5,5V390h240V80H150v13c0,2.8-2.2,5-5,5s-5-2.2-5-5V70h260V400z"
       id="path7" /></g><g
     id="g9"><path
       class="st0"
       d="M355,170H212c-2.8,0-5-2.2-5-5s2.2-5,5-5h143c2.8,0,5-2.2,5-5v-10c0-2.8-2.2-5-5-5H189c-2.8,0-5-2.2-5-5   s2.2-5,5-5h166c8.3,0,15,6.7,15,15v10C370,163.3,363.3,170,355,170z"
       id="path11" /></g><g
     id="g13"><path
       class="st0"
       d="M315,350h-90c-11,0-20-9-20-20s9-20,20-20h90c11,0,20,9,20,20S326,350,315,350z M225,320c-5.5,0-10,4.5-10,10   s4.5,10,10,10h90c5.5,0,10-4.5,10-10s-4.5-10-10-10H225z"
       id="path15" /></g><g
     id="g17"
     style="fill:#64a19d;fill-opacity:1"><path
       class="st1"
       d="M355,230H185c-8.3,0-15-6.7-15-15c0-2.8,2.2-5,5-5s5,2.2,5,5c0,2.8,2.2,5,5,5h170c2.8,0,5-2.2,5-5v-10   c0-2.8-2.2-5-5-5H220.5c-2.8,0-5-2.2-5-5s2.2-5,5-5H355c8.3,0,15,6.7,15,15v10C370,223.3,363.3,230,355,230z"
       id="path19"
       style="fill:#64a19d;fill-opacity:1" /></g><g
     id="g21"><path
       class="st0"
       d="M355,290H185c-8.3,0-15-6.7-15-15v-10c0-8.3,6.7-15,15-15h170c8.3,0,15,6.7,15,15v10   C370,283.3,363.3,290,355,290z M185,260c-2.8,0-5,2.2-5,5v10c0,2.8,2.2,5,5,5h170c2.8,0,5-2.2,5-5v-10c0-2.8-2.2-5-5-5H185z"
       id="path23" /></g><path
     class="st1"
     d="M208.2,208.2l-10.6-46L43.1,7.8c-4.9-4.9-11.3-7.3-17.7-7.3c-6.4,0-12.8,2.4-17.7,7.3C-2,17.6-2,33.4,7.8,43.1  l28.3,28.3c0,0,0,0,0,0s0,0,0,0l126.2,126.2L208.2,208.2z M60.8,82l7.1-7.1l94.3,94.3l-3.5,10.6L60.8,82z M46.7,67.9l21.2-21.2  l7.1,7.1L53.8,75L46.7,67.9z M32.5,53.8l21.2-21.2l7.1,7.1L39.6,60.8L32.5,53.8z M179.9,158.6l-10.6,3.5L75,67.9l7.1-7.1  L179.9,158.6z M166.6,187.8l5.3-15.9l15.9-5.3l0.7,0.7l3.7,15.9l-9,9l-15.9-3.7L166.6,187.8z M194.7,194.8l0.1-0.1l0,0.2  L194.7,194.8z M10.5,25.5c0-4,1.6-7.8,4.4-10.6s6.6-4.4,10.6-4.4s7.8,1.6,10.6,4.4l10.6,10.6L25.5,46.7L14.9,36.1  C12,33.2,10.5,29.5,10.5,25.5z"
     id="path25"
     style="fill:#64a19d;fill-opacity:1" /><g
     id="g27"><path
       class="st0"
       d="M70.4,220h-70v-70H47c2.8,0,5,2.2,5,5s-2.2,5-5,5H10.4v50h50v-14c0-2.8,2.2-5,5-5s5,2.2,5,5V220z"
       id="path29" /></g><g
     id="g31"
     style="fill:#64a19d;fill-opacity:1"><g
       id="g33"
       style="fill:#64a19d;fill-opacity:1"><g
         id="g35"
         style="fill:#64a19d;fill-opacity:1"><path
           class="st1"
           d="M41.4,199.8l-20.2-21.5c-1.9-2-1.8-5.2,0.2-7.1c2-1.9,5.2-1.8,7.1,0.2l12.7,13.6L78.2,142     c1.8-2.1,5-2.2,7.1-0.4c2.1,1.8,2.2,5,0.4,7.1L41.4,199.8z"
           id="path37"
           style="fill:#64a19d;fill-opacity:1" /></g></g></g><g
     id="g39"><path
       class="st0"
       d="M70.4,310h-70v-70H47c2.8,0,5,2.2,5,5s-2.2,5-5,5H10.4v50h50v-14c0-2.8,2.2-5,5-5s5,2.2,5,5V310z"
       id="path41" /></g><g
     id="g43"
     style="fill:#64a19d;fill-opacity:1"><g
       id="g45"
       style="fill:#64a19d;fill-opacity:1"><g
         id="g47"
         style="fill:#64a19d;fill-opacity:1"><path
           class="st1"
           d="M41.4,289.8l-20.2-21.5c-1.9-2-1.8-5.2,0.2-7.1c2-1.9,5.2-1.8,7.1,0.2l12.7,13.6L78.2,232     c1.8-2.1,5-2.2,7.1-0.4c2.1,1.8,2.2,5,0.4,7.1L41.4,289.8z"
           id="path49"
           style="fill:#64a19d;fill-opacity:1" /></g></g></g><g
     id="g51"><path
       class="st0"
       d="M70.4,400h-70v-70H47c2.8,0,5,2.2,5,5s-2.2,5-5,5H10.4v50h50v-14c0-2.8,2.2-5,5-5s5,2.2,5,5V400z"
       id="path53" /></g><g
     id="g55"
     style="fill:#64a19d;fill-opacity:1"><g
       id="g57"
       style="fill:#64a19d;fill-opacity:1"><g
         id="g59"
         style="fill:#64a19d;fill-opacity:1"><path
           class="st1"
           d="M41.4,379.8l-20.2-21.5c-1.9-2-1.8-5.2,0.2-7.1c2-1.9,5.2-1.8,7.1,0.2l12.7,13.6L78.2,322     c1.8-2.1,5-2.2,7.1-0.4c2.1,1.8,2.2,5,0.4,7.1L41.4,379.8z"
           id="path61"
           style="fill:#64a19d;fill-opacity:1" /></g></g></g></svg>