<?xml version="1.0" encoding="utf-8"?>
<!-- Generator: Adobe Illustrator 22.0.1, SVG Export Plug-In . SVG Version: 6.00 Build 0)  -->
<svg version="1.1" id="Layer_1" xmlns="http://www.w3.org/2000/svg" xmlns:xlink="http://www.w3.org/1999/xlink" x="0px" y="0px"
	 viewBox="0 0 220 220" style="enable-background:new 0 0 220 220;" xml:space="preserve">
<style type="text/css">
	.st0{fill:#2C3E50;}
	.st1{fill:#00BF9A;}
</style>
<g>
	<path class="st0" d="M110,220C49.3,220,0,170.7,0,110c0-9.5,1.2-18.9,3.6-28c0.7-2.7,3.4-4.3,6.1-3.6c2.7,0.7,4.3,3.4,3.6,6.1
		C11.1,92.8,10,101.4,10,110c0,55.1,44.9,100,100,100c55.1,0,100-44.9,100-100c0-55.1-44.9-100-100-100c-11.2,0-22.3,1.8-32.8,5.5
		c-2.6,0.9-5.5-0.5-6.4-3.1C70,9.8,71.3,7,73.9,6C85.5,2,97.6,0,110,0c60.7,0,110,49.3,110,110S170.7,220,110,220z"/>
</g>
<g>
	<g>
		<path class="st1" d="M18.9,72.9c-2.8,0-5-2.2-5-5v-10c0-2.8,2.2-5,5-5s5,2.2,5,5v10C23.9,70.7,21.6,72.9,18.9,72.9z"/>
	</g>
	<g>
		<path class="st1" d="M38.2,72.9c-2.8,0-5-2.2-5-5v-30c0-2.8,2.2-5,5-5s5,2.2,5,5v30C43.2,70.7,41,72.9,38.2,72.9z"/>
	</g>
	<g>
		<path class="st1" d="M57.6,72.9c-2.8,0-5-2.2-5-5v-50c0-2.8,2.2-5,5-5s5,2.2,5,5v50C62.6,70.7,60.3,72.9,57.6,72.9z"/>
	</g>
</g>
<g>
	<path class="st0" d="M110,126.7c-19.3,0-35-15.7-35-35c0-19.3,15.7-35,35-35s35,15.7,35,35C145,111,129.3,126.7,110,126.7z
		 M110,66.7c-13.8,0-25,11.2-25,25s11.2,25,25,25s25-11.2,25-25S123.8,66.7,110,66.7z"/>
</g>
<g>
	<path class="st0" d="M110,200c-47.8,0-68.3-31-69.2-32.3l-2.2-3.4l2.8-2.9c1-1,25.7-25.5,68.6-25.5c42.9,0,67.5,24.4,68.6,25.5
		l2.8,2.9l-2.2,3.4C178.3,169,157.8,200,110,200z M51.9,165.6c2.3,2.7,6.2,6.6,11.8,10.5C76.7,185.4,92.3,190,110,190
		s33.3-4.6,46.3-13.8c5.6-3.9,9.5-7.8,11.8-10.5c-7.6-6.1-28-19.7-58.1-19.7C79.8,146,59.4,159.6,51.9,165.6z"/>
</g>
</svg>
