<?xml version="1.0" encoding="UTF-8" standalone="no"?>
<!-- Generator: Adobe Illustrator 22.0.1, SVG Export Plug-In . SVG Version: 6.00 Build 0)  -->

<svg
   xmlns:dc="http://purl.org/dc/elements/1.1/"
   xmlns:cc="http://creativecommons.org/ns#"
   xmlns:rdf="http://www.w3.org/1999/02/22-rdf-syntax-ns#"
   xmlns:svg="http://www.w3.org/2000/svg"
   xmlns="http://www.w3.org/2000/svg"
   xmlns:sodipodi="http://sodipodi.sourceforge.net/DTD/sodipodi-0.dtd"
   xmlns:inkscape="http://www.inkscape.org/namespaces/inkscape"
   version="1.1"
   id="Layer_1"
   x="0px"
   y="0px"
   viewBox="0 0 220 220"
   style="enable-background:new 0 0 220 220;"
   xml:space="preserve"
   inkscape:version="0.91 r13725"
   sodipodi:docname="icon_multiple-accounts_p-1.svg"><metadata
     id="metadata73"><rdf:RDF><cc:Work
         rdf:about=""><dc:format>image/svg+xml</dc:format><dc:type
           rdf:resource="http://purl.org/dc/dcmitype/StillImage" /></cc:Work></rdf:RDF></metadata><defs
     id="defs71" /><sodipodi:namedview
     pagecolor="#ffffff"
     bordercolor="#666666"
     borderopacity="1"
     objecttolerance="10"
     gridtolerance="10"
     guidetolerance="10"
     inkscape:pageopacity="0"
     inkscape:pageshadow="2"
     inkscape:window-width="1920"
     inkscape:window-height="986"
     id="namedview69"
     showgrid="false"
     inkscape:zoom="1.0727273"
     inkscape:cx="110"
     inkscape:cy="110"
     inkscape:window-x="-11"
     inkscape:window-y="-11"
     inkscape:window-maximized="1"
     inkscape:current-layer="Layer_1" /><style
     type="text/css"
     id="style3">
	.st0{fill:#00BF9A;}
	.st1{fill:#2C3E50;}
</style><g
     id="g5"
     style="fill:#64a19d;fill-opacity:1"><path
       class="st0"
       d="M90,105H15c-8.3,0-15-6.7-15-15V15C0,6.7,6.7,0,15,0h75c8.3,0,15,6.7,15,15v75C105,98.3,98.3,105,90,105z    M15,10c-2.8,0-5,2.2-5,5v75c0,2.8,2.2,5,5,5h75c2.8,0,5-2.2,5-5V15c0-2.8-2.2-5-5-5H15z"
       id="path7"
       style="fill:#64a19d;fill-opacity:1" /></g><g
     id="g9"
     style="fill:#64a19d;fill-opacity:1"><path
       class="st0"
       d="M80,84.6H25c-2.8,0-5-2.2-5-5s2.2-5,5-5h55c2.8,0,5,2.2,5,5S82.8,84.6,80,84.6z"
       id="path11"
       style="fill:#64a19d;fill-opacity:1" /></g><g
     id="g13"
     style="fill:#64a19d;fill-opacity:1"><path
       class="st0"
       d="M80,64.6H25c-2.8,0-5-2.2-5-5s2.2-5,5-5h55c2.8,0,5,2.2,5,5S82.8,64.6,80,64.6z"
       id="path15"
       style="fill:#64a19d;fill-opacity:1" /></g><g
     id="g17"
     style="fill:#64a19d;fill-opacity:1"><path
       class="st0"
       d="M33,44.5c-6.9,0-12.5-5.6-12.5-12.5S26.1,19.5,33,19.5S45.5,25.1,45.5,32S39.9,44.5,33,44.5z M33,29.5   c-1.4,0-2.5,1.1-2.5,2.5s1.1,2.5,2.5,2.5s2.5-1.1,2.5-2.5S34.4,29.5,33,29.5z"
       id="path19"
       style="fill:#64a19d;fill-opacity:1" /></g><g
     id="g21"><path
       class="st1"
       d="M205,105h-75c-8.3,0-15-6.7-15-15V15c0-8.3,6.7-15,15-15h75c8.3,0,15,6.7,15,15v75C220,98.3,213.3,105,205,105   z M130,10c-2.8,0-5,2.2-5,5v75c0,2.8,2.2,5,5,5h75c2.8,0,5-2.2,5-5V15c0-2.8-2.2-5-5-5H130z"
       id="path23" /></g><g
     id="g25"><path
       class="st1"
       d="M195,84.6h-55c-2.8,0-5-2.2-5-5s2.2-5,5-5h55c2.8,0,5,2.2,5,5S197.8,84.6,195,84.6z"
       id="path27" /></g><g
     id="g29"><path
       class="st1"
       d="M195,64.6h-55c-2.8,0-5-2.2-5-5s2.2-5,5-5h55c2.8,0,5,2.2,5,5S197.8,64.6,195,64.6z"
       id="path31" /></g><g
     id="g33"><path
       class="st1"
       d="M148,44.5c-6.9,0-12.5-5.6-12.5-12.5s5.6-12.5,12.5-12.5s12.5,5.6,12.5,12.5S154.9,44.5,148,44.5z M148,29.5   c-1.4,0-2.5,1.1-2.5,2.5s1.1,2.5,2.5,2.5s2.5-1.1,2.5-2.5S149.4,29.5,148,29.5z"
       id="path35" /></g><g
     id="g37"><path
       class="st1"
       d="M90,220H15c-8.3,0-15-6.7-15-15v-75c0-8.3,6.7-15,15-15h75c8.3,0,15,6.7,15,15v75C105,213.3,98.3,220,90,220z    M15,125c-2.8,0-5,2.2-5,5v75c0,2.8,2.2,5,5,5h75c2.8,0,5-2.2,5-5v-75c0-2.8-2.2-5-5-5H15z"
       id="path39" /></g><g
     id="g41"><path
       class="st1"
       d="M80,199.6H25c-2.8,0-5-2.2-5-5s2.2-5,5-5h55c2.8,0,5,2.2,5,5S82.8,199.6,80,199.6z"
       id="path43" /></g><g
     id="g45"><path
       class="st1"
       d="M80,179.6H25c-2.8,0-5-2.2-5-5s2.2-5,5-5h55c2.8,0,5,2.2,5,5S82.8,179.6,80,179.6z"
       id="path47" /></g><g
     id="g49"><path
       class="st1"
       d="M33,159.5c-6.9,0-12.5-5.6-12.5-12.5s5.6-12.5,12.5-12.5s12.5,5.6,12.5,12.5S39.9,159.5,33,159.5z M33,144.5   c-1.4,0-2.5,1.1-2.5,2.5s1.1,2.5,2.5,2.5s2.5-1.1,2.5-2.5S34.4,144.5,33,144.5z"
       id="path51" /></g><g
     id="g53"><path
       class="st1"
       d="M205,220h-75c-8.3,0-15-6.7-15-15v-75c0-8.3,6.7-15,15-15h75c8.3,0,15,6.7,15,15v75   C220,213.3,213.3,220,205,220z M130,125c-2.8,0-5,2.2-5,5v75c0,2.8,2.2,5,5,5h75c2.8,0,5-2.2,5-5v-75c0-2.8-2.2-5-5-5H130z"
       id="path55" /></g><g
     id="g57"><path
       class="st1"
       d="M195,199.6h-55c-2.8,0-5-2.2-5-5s2.2-5,5-5h55c2.8,0,5,2.2,5,5S197.8,199.6,195,199.6z"
       id="path59" /></g><g
     id="g61"><path
       class="st1"
       d="M195.1,179.5h-55c-2.8,0-5-2.2-5-5s2.2-5,5-5h55c2.8,0,5,2.2,5,5S197.9,179.5,195.1,179.5z"
       id="path63" /></g><g
     id="g65"><path
       class="st1"
       d="M148,159.5c-6.9,0-12.5-5.6-12.5-12.5s5.6-12.5,12.5-12.5s12.5,5.6,12.5,12.5S154.9,159.5,148,159.5z    M148,144.5c-1.4,0-2.5,1.1-2.5,2.5s1.1,2.5,2.5,2.5s2.5-1.1,2.5-2.5S149.4,144.5,148,144.5z"
       id="path67" /></g></svg>