<?xml version="1.0" encoding="utf-8"?>
<!-- Generator: Adobe Illustrator 22.0.1, SVG Export Plug-In . SVG Version: 6.00 Build 0)  -->
<svg version="1.1" id="Layer_1" xmlns="http://www.w3.org/2000/svg" xmlns:xlink="http://www.w3.org/1999/xlink" x="0px" y="0px"
	 viewBox="0 0 220 220" style="enable-background:new 0 0 220 220;" xml:space="preserve">
<style type="text/css">
	.st0{fill:#2C3E50;}
	.st1{fill:#00BF9A;}
</style>
<g>
	<g>
		<path class="st0" d="M114.8,105.5c3,0,6.1,0,9.2,0c7.7,0,15.5,0,23.2,0.1c1.6,0,7,0.4,9.1,4.3s-0.6,8.6-1.4,9.9
			c-1.5,2.3-3.5,5.1-6.6,6.8c-1.1,0.6-1.7,1.6-2,2.9c-0.4,2.3,0.4,5.1,2,7.1c3.9,4.7,20.2,4.5,25,1.5c1.8-1.1,3.1-3.4,3.3-5.9
			c0.1-1.8-0.3-4.4-3-6.6c-2.1-1.7-4-3.9-5.7-6.6c-2.2-3.6-2.6-6.7-1.1-9.4c1.5-2.7,4.3-4.1,8.6-4.1c3.2-0.1,6.5,0,9.7,0
			c1.7,0,3.3,0,5,0h7.1c7,0,16.6,0,17.6-0.1l5.2-0.2v5.2c0,29.4-11.4,56.9-32.2,77.6s-48.4,32-77.8,32l-5.9,0v-5
			c0-7.1,0-14.7,0.1-22.3c0-5.8,0-11.5,0.1-17c-1.1,0.9-2.1,1.8-2.9,2.8c-6,7.5-15.5,8.9-23.1,3.4c-6.3-4.5-10-12.9-10.1-22.4
			c0-9.5,3.7-17.9,10-22.5c7.6-5.5,17.1-4.2,23.1,3.3c0.8,1,1.8,1.9,2.9,2.8v-27.3L114.8,105.5z M106.3,163.7c0.4,0,0.8,0,1.1,0.1
			c1.6,0.2,3.9,1,5.8,3.7l1,1.3v1.6c0,7.1,0,14.7-0.1,22.3c0,5.8,0,11.6-0.1,17.2c51.6-2.1,93.2-43.3,95.8-94.5c-2.9,0-7,0-12.7,0
			H190c-1.7,0-3.3,0-5,0c-2.4,0-5,0-7.4,0c0.7,1,1.5,1.8,2.3,2.4c4.7,3.8,7.1,9.2,6.7,15c-0.4,5.7-3.5,11-8.1,13.8
			c-7.6,4.6-30,5.8-37.9-3.7c-3.6-4.3-5.2-10.1-4.2-15.3c0.8-4.3,3.3-7.8,7-9.8c0.6-0.3,1.3-1.1,2.2-2.3c-9-0.1-18.1-0.1-27-0.1
			c-1.5,0-2.9,0-4.4,0v34.8l-1.1,1.4c-3.3,4.1-8.3,4.6-12.4,1.4l-0.5-0.4c-2.2-1.7-4.7-3.6-6.7-6.1c-2.6-3.3-6.1-3.9-9.4-1.5
			c-3.6,2.7-5.9,8.2-5.9,14.4s2.3,11.7,5.9,14.3c3.3,2.4,6.8,1.8,9.4-1.5c2-2.6,4.6-4.5,6.9-6.2l0.4-0.3
			C102.8,164.2,104.8,163.7,106.3,163.7z M106.9,173.6L106.9,173.6L106.9,173.6z M174.4,115.6L174.4,115.6L174.4,115.6z"/>
		<path class="st1" d="M140.7,36.1c-7.6-5.5-17.1-4.1-23.1,3.4c-0.7,1-1.8,1.9-2.9,2.8V0h-5C49.2,0.2,0,49.5,0,110.1v6.4h5
			c7.2,0,14.8-0.2,22.1-0.3c7.3-0.2,14.9-0.3,21.9-0.3h1.6l1.3-1c2.7-1.9,3.5-4.2,3.7-5.8c0.2-1.6,0.1-4.1-1.9-6.7l-0.3-0.4
			c-1.7-2.3-3.6-4.9-6.2-6.9c-3.3-2.6-3.9-6.1-1.5-9.4c2.6-3.6,8.1-5.9,14.3-5.9c6.3,0,11.8,2.3,14.4,5.9c2.4,3.3,1.8,6.8-1.5,9.4
			c-2.5,2-4.4,4.5-6.1,6.7l-0.4,0.5c-3.2,4.1-2.7,9.1,1.4,12.4l1.4,1.1h35l10.6-10.3V74.9c1.1,0.9,2.1,1.8,2.9,2.8
			c6,7.5,15.5,8.8,23.1,3.3c6.3-4.6,10-13,10-22.5C150.7,49,147,40.6,140.7,36.1z M135.1,72.9c-3.3,2.3-6.8,1.8-9.4-1.5
			c-2-2.5-4.5-4.4-6.7-6.1l-0.5-0.4c-4.1-3.2-9.1-2.6-12.4,1.4l-1.1,1.4v37.9H76.5c0.9-1.1,1.8-2.1,2.8-2.9c7.5-6,8.8-15.5,3.3-23.1
			c-4.6-6.3-13-10-22.5-10c-0.1,0-0.1,0-0.1,0c-9.5,0.1-17.9,3.8-22.4,10.1c-5.5,7.6-4.1,17.1,3.4,23.1c1,0.8,1.9,1.9,2.8,3
			c-5.6,0.1-11.3,0.2-16.9,0.3c-5.6,0.1-11.3,0.3-16.8,0.3c1.8-51.7,43.1-93.6,94.6-96.3c0,0,0.2,0,0.2,0v39l1,1.3
			c1.9,2.7,4.2,3.5,5.8,3.7c1.6,0.2,4.1,0.1,6.7-1.9l0.4-0.3c2.3-1.7,4.9-3.6,6.9-6.2c2.6-3.3,6.1-3.9,9.4-1.5
			c3.6,2.6,5.9,8.1,5.9,14.3S138.7,70.2,135.1,72.9z"/>
		<path class="st0" d="M112,44.3L112,44.3L112,44.3z"/>
	</g>
</g>
</svg>
