<?xml version="1.0" encoding="utf-8"?>
<!-- Generator: Adobe Illustrator 22.0.1, SVG Export Plug-In . SVG Version: 6.00 Build 0)  -->
<svg version="1.1" id="Layer_1" xmlns="http://www.w3.org/2000/svg" xmlns:xlink="http://www.w3.org/1999/xlink" x="0px" y="0px"
	 viewBox="0 0 220 220" style="enable-background:new 0 0 220 220;" xml:space="preserve">
<style type="text/css">
	.st0{fill:#2C3E50;}
	.st1{fill:#00BF9A;}
</style>
<g>
	<path class="st0" d="M205,220H15c-8.3,0-15-6.7-15-15V15C0,6.7,6.7,0,15,0h190c8.3,0,15,6.7,15,15v190C220,213.3,213.3,220,205,220
		z M15,10c-2.8,0-5,2.2-5,5v190c0,2.8,2.2,5,5,5h190c2.8,0,5-2.2,5-5V15c0-2.8-2.2-5-5-5H15z"/>
</g>
<g>
	<path class="st1" d="M190.5,180h-70V70h70V180z M130.5,170h50V80h-50V170z"/>
</g>
<g>
	<rect x="10" y="40" class="st0" width="200" height="10"/>
</g>
<g>
	<circle class="st0" cx="25.1" cy="25" r="5"/>
</g>
<g>
	<circle class="st0" cx="45" cy="25" r="5"/>
</g>
<g>
	<circle class="st0" cx="65.2" cy="25.2" r="5"/>
</g>
<g>
	<rect x="10" y="40" class="st0" width="200" height="10"/>
</g>
<g>
	<path class="st0" d="M95,80H35c-2.8,0-5-2.2-5-5s2.2-5,5-5h60c2.8,0,5,2.2,5,5S97.8,80,95,80z"/>
</g>
<g>
	<path class="st0" d="M95,100H35c-2.8,0-5-2.2-5-5s2.2-5,5-5h60c2.8,0,5,2.2,5,5S97.8,100,95,100z"/>
</g>
<g>
	<path class="st0" d="M65,120H35c-2.8,0-5-2.2-5-5s2.2-5,5-5h30c2.8,0,5,2.2,5,5S67.8,120,65,120z"/>
</g>
<g>
	<path class="st0" d="M95,160H35c-2.8,0-5-2.2-5-5s2.2-5,5-5h60c2.8,0,5,2.2,5,5S97.8,160,95,160z"/>
</g>
<g>
	<path class="st0" d="M65,180H35c-2.8,0-5-2.2-5-5s2.2-5,5-5h30c2.8,0,5,2.2,5,5S67.8,180,65,180z"/>
</g>
</svg>
