<?xml version="1.0" encoding="utf-8"?>
<!-- Generator: Adobe Illustrator 22.0.1, SVG Export Plug-In . SVG Version: 6.00 Build 0)  -->
<svg version="1.1" id="Layer_1" xmlns="http://www.w3.org/2000/svg" xmlns:xlink="http://www.w3.org/1999/xlink" x="0px" y="0px"
	 viewBox="0 0 220 220" style="enable-background:new 0 0 220 220;" xml:space="preserve">
<style type="text/css">
	.st0{fill:#2C3E50;}
	.st1{fill:#00BF9A;}
</style>
<g>
	<path class="st0" d="M220.3,194.7c0-2.8-2.2-5-5-5H30V5.3c0-0.9-0.3-1.8-0.7-2.5c-0.7-1.9-2.5-3.2-4.6-3.2h-20c-2.8,0-5,2.2-5,5
		s2.2,5,5,5H20v30H4.7c-2.8,0-5,2.2-5,5s2.2,5,5,5H20v30H4.7c-2.8,0-5,2.2-5,5s2.2,5,5,5H20v30H4.7c-2.8,0-5,2.2-5,5s2.2,5,5,5H20
		v30H4.7c-2.8,0-5,2.2-5,5s2.2,5,5,5H20v30h30V215c0,2.8,2.2,5,5,5s5-2.2,5-5v-15.3h30V215c0,2.8,2.2,5,5,5s5-2.2,5-5v-15.3h30V215
		c0,2.8,2.2,5,5,5s5-2.2,5-5v-15.3h30V215c0,2.8,2.2,5,5,5s5-2.2,5-5v-15.3h30V215c0,2.8,2.2,5,5,5s5-2.2,5-5v-18.6
		C220.2,195.9,220.3,195.3,220.3,194.7z"/>
	<path class="st1" d="M42.4,180c0.7,0.3,1.4,0.5,2.1,0.5c1.9,0,3.7-1.1,4.5-2.9l21.9-46.3c1-1.7,2.7-2.7,4.6-2.8
		c2-0.1,3.8,0.7,5,2.3l9.9,13.2c3.2,4.3,8.3,6.4,13.6,5.7c5.3-0.7,9.7-4.1,11.7-9.1l27.4-68.2c0.9-2.2,2.8-2.7,3.6-2.8
		c0.8-0.1,2.8-0.1,4.2,1.8l10.6,14.4c3,4.1,7.9,6.3,13,5.7c5.1-0.5,9.4-3.7,11.5-8.4L219.6,7c1.1-2.5,0-5.5-2.5-6.6
		c-2.5-1.1-5.5,0-6.6,2.5l-33.8,76.3c-0.9,2-2.7,2.4-3.4,2.5c-0.7,0.1-2.5,0.1-3.8-1.7l-10.6-14.4c-3.1-4.3-8.2-6.5-13.5-5.8
		c-5.3,0.7-9.6,4-11.6,9L106.4,137c-0.9,2.3-2.9,2.8-3.7,2.9c-0.8,0.1-2.8,0.1-4.3-1.8l-9.9-13.2c-3.2-4.3-8.3-6.6-13.7-6.3
		c-5.3,0.3-10.1,3.3-12.7,8L40,173.4C38.8,175.9,39.9,178.8,42.4,180z"/>
</g>
</svg>
