<?xml version="1.0" encoding="utf-8"?>
<!-- Generator: Adobe Illustrator 22.0.1, SVG Export Plug-In . SVG Version: 6.00 Build 0)  -->
<svg version="1.1" id="Layer_1" xmlns="http://www.w3.org/2000/svg" xmlns:xlink="http://www.w3.org/1999/xlink" x="0px" y="0px"
	 viewBox="0 0 220 220" style="enable-background:new 0 0 220 220;" xml:space="preserve">
<style type="text/css">
	.st0{fill:#2C3E50;}
	.st1{fill:#00BF9A;}
</style>
<path class="st0" d="M193.5,59.5h-33.8c-2.8,0-5,2.2-5,5s2.2,5,5,5h33.8c8.7,0,15.8,7.1,15.8,15.8v9.2l-100.6,60.7l-98-60.6v-9.2
	c0-8.7,7.1-15.8,15.8-15.8h33.2c2.8,0,5-2.2,5-5s-2.2-5-5-5H26.5c-14.3,0-25.8,11.6-25.8,25.8v12v96.3c0,14.3,11.6,25.8,25.8,25.8
	h83.4h0.2h83.4c14.3,0,25.8-11.6,25.8-25.8V97.4v-12C219.3,71.1,207.7,59.5,193.5,59.5z M193.5,209.6h-83.4h-0.2H26.5
	c-8.7,0-15.8-7.1-15.8-15.8v-87.4l95.4,59h0.1c0.1,0.1,0.2,0.1,0.3,0.2c0,0,0.1,0,0.1,0.1c0,0,0.1,0,0.1,0.1c0.1,0,0.1,0,0.2,0.1
	c0.1,0,0.1,0,0.2,0.1l0,0c0.1,0,0.2,0.1,0.3,0.1c0,0,0,0,0.1,0c0,0,0,0,0.1,0s0.1,0,0.2,0h0.1h0.1h0.1c0.1,0,0.2,0,0.3,0
	c0.1,0,0.1,0,0.2,0l0,0h0.1l0,0l0,0h0.1c0.1,0,0.1,0,0.2,0s0.2,0,0.3,0c0,0,0,0,0.1,0c0,0,0,0,0.1,0s0.1,0,0.2,0h0.1h0.1h0.1
	c0.1,0,0.2-0.1,0.3-0.1l0,0c0.1,0,0.1,0,0.2-0.1c0.1,0,0.1,0,0.2-0.1c0,0,0.1,0,0.1-0.1c0,0,0.1,0,0.1-0.1c0.1-0.1,0.2-0.1,0.4-0.2
	h0.1l98.1-59.1v87.5C209.3,202.5,202.2,209.6,193.5,209.6z"/>
<path class="st1" d="M89.5,70.5c2.8,0,5-2.2,5-5V45.3c0-2.8-2.2-5-5-5s-5,2.2-5,5v20.2C84.5,68.3,86.7,70.5,89.5,70.5z"/>
<path class="st1" d="M109.8,70.5c2.8,0,5-2.2,5-5V25.3c0-2.8-2.2-5-5-5s-5,2.2-5,5v40.2C104.8,68.3,107,70.5,109.8,70.5z"/>
<path class="st1" d="M129.8,70.5c2.8,0,5-2.2,5-5V5.3c0-2.8-2.2-5-5-5c-2.8,0-5,2.2-5,5v60.2C124.8,68.3,127,70.5,129.8,70.5z"/>
</svg>
