<?xml version="1.0" encoding="UTF-8" standalone="no"?>
<!-- Generator: Adobe Illustrator 22.0.1, SVG Export Plug-In . SVG Version: 6.00 Build 0)  -->

<svg
   xmlns:dc="http://purl.org/dc/elements/1.1/"
   xmlns:cc="http://creativecommons.org/ns#"
   xmlns:rdf="http://www.w3.org/1999/02/22-rdf-syntax-ns#"
   xmlns:svg="http://www.w3.org/2000/svg"
   xmlns="http://www.w3.org/2000/svg"
   xmlns:sodipodi="http://sodipodi.sourceforge.net/DTD/sodipodi-0.dtd"
   xmlns:inkscape="http://www.inkscape.org/namespaces/inkscape"
   version="1.1"
   id="Layer_1"
   x="0px"
   y="0px"
   viewBox="0 0 220 220"
   style="enable-background:new 0 0 220 220;"
   xml:space="preserve"
   inkscape:version="0.91 r13725"
   sodipodi:docname="icon_progressive-profiling_b.svg"><metadata
     id="metadata31"><rdf:RDF><cc:Work
         rdf:about=""><dc:format>image/svg+xml</dc:format><dc:type
           rdf:resource="http://purl.org/dc/dcmitype/StillImage" /></cc:Work></rdf:RDF></metadata><defs
     id="defs29" /><sodipodi:namedview
     pagecolor="#ffffff"
     bordercolor="#666666"
     borderopacity="1"
     objecttolerance="10"
     gridtolerance="10"
     guidetolerance="10"
     inkscape:pageopacity="0"
     inkscape:pageshadow="2"
     inkscape:window-width="1920"
     inkscape:window-height="986"
     id="namedview27"
     showgrid="false"
     inkscape:zoom="1.0727273"
     inkscape:cx="110"
     inkscape:cy="110"
     inkscape:window-x="-11"
     inkscape:window-y="-11"
     inkscape:window-maximized="1"
     inkscape:current-layer="Layer_1" /><style
     type="text/css"
     id="style3">
	.st0{fill:none;}
	.st1{fill:#2C3E50;}
	.st2{fill:#00BF9A;}
</style><circle
     class="st0"
     cx="25"
     cy="55.2"
     r="15"
     id="circle5" /><path
     class="st0"
     d="M109.7,160.3c-34.1,0-49.4,26-53.8,35.6c7.1,4.3,26,13.9,54.5,13.9c28.6,0,46.6-9.5,53.2-13.8  C159.2,186.4,144.2,160.3,109.7,160.3z"
     id="path7" /><circle
     class="st0"
     cx="109.7"
     cy="105.2"
     r="25"
     id="circle9" /><circle
     class="st0"
     cx="205"
     cy="100.2"
     r="5"
     id="circle11" /><path
     class="st1"
     d="M205,85.2c-8.3,0-15,6.7-15,15s6.7,15,15,15s15-6.7,15-15S213.3,85.2,205,85.2z M205,105.2c-2.8,0-5-2.2-5-5  s2.2-5,5-5s5,2.2,5,5S207.8,105.2,205,105.2z"
     id="path13" /><path
     class="st1"
     d="M50,55.2c0-13.8-11.2-25-25-25S0,41.4,0,55.2s11.2,25,25,25S50,69,50,55.2z M10,55.2c0-8.3,6.7-15,15-15  s15,6.7,15,15s-6.7,15-15,15S10,63.5,10,55.2z"
     id="path15" /><path
     class="st1"
     d="M74.7,105.2c0,19.3,15.7,35,35,35s35-15.7,35-35s-15.7-35-35-35S74.7,85.9,74.7,105.2z M134.7,105.2  c0,13.8-11.2,25-25,25s-25-11.2-25-25s11.2-25,25-25S134.7,91.4,134.7,105.2z"
     id="path17" /><path
     class="st1"
     d="M160.6,173.3c-9.2-10.5-25.4-22.9-50.9-22.9s-41.7,12.5-50.9,22.9c-9.8,11.2-13.7,22.4-13.9,22.9l-1.1,3.4  l2.8,2.2c0.9,0.7,23.5,18.1,63.8,18.1c40.4,0,61.7-17.4,62.5-18.2l2.6-2.2l-1.1-3.2C174.2,195.7,170.4,184.5,160.6,173.3z   M110.3,209.8c-28.5,0-47.4-9.6-54.5-13.9c4.5-9.6,19.7-35.6,53.8-35.6c34.6,0,49.6,26.1,53.9,35.6  C156.9,200.3,138.9,209.8,110.3,209.8z"
     id="path19" /><path
     d="M46.7,28.1l0.4,0.1c-0.1-0.2-0.2-0.3-0.3-0.5L46.7,28.1z"
     id="path21" /><path
     class="st2"
     d="M204.7,69c-13.5-41.1-51.7-68.8-95-68.8C92,0.2,75.2,4.7,60.2,13.3l0.6-2.6c0.6-2.7-1.1-5.4-3.8-6  c-2.7-0.6-5.4,1.1-6,3.8l-2.8,12.8l-1.4,6.3c0.1,0.2,0.2,0.3,0.3,0.5l6.6,1.5l12.5,2.8c0.4,0.1,0.7,0.1,1.1,0.1  c2.3,0,4.4-1.6,4.9-3.9c0.6-2.7-1.1-5.4-3.8-6l-3.1-0.7c13.5-7.7,28.6-11.7,44.4-11.7c39,0,73.4,24.9,85.5,61.9  c0.7,2.1,2.6,3.4,4.8,3.4c0.5,0,1-0.1,1.6-0.3C204.1,74.5,205.6,71.6,204.7,69z"
     id="path23"
     style="fill:#64a19d;fill-opacity:1" /><path
     class="st2"
     d="M43.4,146c-2.7-0.2-5.2,1.8-5.4,4.5l-0.3,3.7c-11.7-15.5-18-34.2-18-54c0-1.9,0.1-3.9,0.2-5.8  c0.2-2.8-1.9-5.1-4.7-5.3c-2.8-0.2-5.1,1.9-5.3,4.7c-0.1,2.1-0.2,4.3-0.2,6.5c0,21.8,6.9,42.5,19.7,59.6l-2.2-0.2  c-2.7-0.2-5.2,1.8-5.4,4.5c-0.2,2.8,1.8,5.2,4.5,5.4l12.5,1.1l7.4,0.7l0.6-6.8l1.2-13.1C48.2,148.7,46.2,146.3,43.4,146z"
     id="path25"
     style="fill:#64a19d;fill-opacity:1" /></svg>