<?xml version="1.0" encoding="UTF-8" standalone="no"?>
<!-- Generator: Adobe Illustrator 22.0.1, SVG Export Plug-In . SVG Version: 6.00 Build 0)  -->

<svg
   xmlns:dc="http://purl.org/dc/elements/1.1/"
   xmlns:cc="http://creativecommons.org/ns#"
   xmlns:rdf="http://www.w3.org/1999/02/22-rdf-syntax-ns#"
   xmlns:svg="http://www.w3.org/2000/svg"
   xmlns="http://www.w3.org/2000/svg"
   xmlns:sodipodi="http://sodipodi.sourceforge.net/DTD/sodipodi-0.dtd"
   xmlns:inkscape="http://www.inkscape.org/namespaces/inkscape"
   version="1.1"
   id="Layer_1"
   x="0px"
   y="0px"
   viewBox="0 0 220 220"
   style="enable-background:new 0 0 220 220;"
   xml:space="preserve"
   inkscape:version="0.91 r13725"
   sodipodi:docname="icon_contact-management_b.svg"><metadata
     id="metadata65"><rdf:RDF><cc:Work
         rdf:about=""><dc:format>image/svg+xml</dc:format><dc:type
           rdf:resource="http://purl.org/dc/dcmitype/StillImage" /></cc:Work></rdf:RDF></metadata><defs
     id="defs63" /><sodipodi:namedview
     pagecolor="#ffffff"
     bordercolor="#666666"
     borderopacity="1"
     objecttolerance="10"
     gridtolerance="10"
     guidetolerance="10"
     inkscape:pageopacity="0"
     inkscape:pageshadow="2"
     inkscape:window-width="1920"
     inkscape:window-height="986"
     id="namedview61"
     showgrid="false"
     inkscape:zoom="1.0727273"
     inkscape:cx="110"
     inkscape:cy="110"
     inkscape:window-x="-11"
     inkscape:window-y="-11"
     inkscape:window-maximized="1"
     inkscape:current-layer="Layer_1" /><style
     type="text/css"
     id="style3">
	.st0{fill:#00BF9A;}
	.st1{fill:#2C3E50;}
</style><g
     id="g5"
     style="fill:#64a19d;fill-opacity:1"><g
       id="g7"
       style="fill:#64a19d;fill-opacity:1"><path
         class="st0"
         d="M90,105H15c-8.3,0-15-6.7-15-15V15C0,6.7,6.7,0,15,0h75c8.3,0,15,6.7,15,15v75C105,98.3,98.3,105,90,105z     M15,10c-2.8,0-5,2.2-5,5v75c0,2.8,2.2,5,5,5h75c2.8,0,5-2.2,5-5V15c0-2.8-2.2-5-5-5H15z"
         id="path9"
         style="fill:#64a19d;fill-opacity:1" /></g></g><g
     id="g11"
     style="fill:#64a19d;fill-opacity:1"><path
       class="st0"
       d="M51,50c-8.3,0-15-6.7-15-15s6.7-15,15-15s15,6.7,15,15S59.3,50,51,50z M51,30c-2.8,0-5,2.2-5,5s2.2,5,5,5   s5-2.2,5-5S53.8,30,51,30z"
       id="path13"
       style="fill:#64a19d;fill-opacity:1" /></g><g
     id="g15"
     style="fill:#64a19d;fill-opacity:1"><path
       class="st0"
       d="M85,85H20v-5c0-12.1,8.1-25,31-25c20,0,34,10.3,34,25V85z M30.8,75h43c-3-6.1-11.6-10-22.8-10   C40.2,65,33.1,68.6,30.8,75z"
       id="path17"
       style="fill:#64a19d;fill-opacity:1" /></g><g
     id="g19"><g
       id="g21"><path
         class="st1"
         d="M205,105h-75c-8.3,0-15-6.7-15-15V15c0-8.3,6.7-15,15-15h75c8.3,0,15,6.7,15,15v75    C220,98.3,213.3,105,205,105z M130,10c-2.8,0-5,2.2-5,5v75c0,2.8,2.2,5,5,5h75c2.8,0,5-2.2,5-5V15c0-2.8-2.2-5-5-5H130z"
         id="path23" /></g></g><g
     id="g25"><path
       class="st1"
       d="M166,50c-8.3,0-15-6.7-15-15s6.7-15,15-15s15,6.7,15,15S174.3,50,166,50z M166,30c-2.8,0-5,2.2-5,5s2.2,5,5,5   s5-2.2,5-5S168.8,30,166,30z"
       id="path27" /></g><g
     id="g29"><path
       class="st1"
       d="M200,85h-65v-5c0-12.1,8.1-25,31-25c20,0,34,10.3,34,25V85z M145.8,75h43c-3-6.1-11.6-10-22.8-10   C155.2,65,148.1,68.6,145.8,75z"
       id="path31" /></g><g
     id="g33"><g
       id="g35"><path
         class="st1"
         d="M90,220H15c-8.3,0-15-6.7-15-15v-75c0-8.3,6.7-15,15-15h75c8.3,0,15,6.7,15,15v75C105,213.3,98.3,220,90,220z     M15,125c-2.8,0-5,2.2-5,5v75c0,2.8,2.2,5,5,5h75c2.8,0,5-2.2,5-5v-75c0-2.8-2.2-5-5-5H15z"
         id="path37" /></g></g><g
     id="g39"><path
       class="st1"
       d="M51,165c-8.3,0-15-6.7-15-15s6.7-15,15-15s15,6.7,15,15S59.3,165,51,165z M51,145c-2.8,0-5,2.2-5,5s2.2,5,5,5   s5-2.2,5-5S53.8,145,51,145z"
       id="path41" /></g><g
     id="g43"><path
       class="st1"
       d="M85,200H20v-5c0-12.1,8.1-25,31-25c20,0,34,10.3,34,25V200z M30.8,190h43c-3-6.1-11.6-10-22.8-10   C40.2,180,33.1,183.6,30.8,190z"
       id="path45" /></g><g
     id="g47"><g
       id="g49"><path
         class="st1"
         d="M205,220h-75c-8.3,0-15-6.7-15-15v-75c0-8.3,6.7-15,15-15h75c8.3,0,15,6.7,15,15v75    C220,213.3,213.3,220,205,220z M130,125c-2.8,0-5,2.2-5,5v75c0,2.8,2.2,5,5,5h75c2.8,0,5-2.2,5-5v-75c0-2.8-2.2-5-5-5H130z"
         id="path51" /></g></g><g
     id="g53"><path
       class="st1"
       d="M166,165c-8.3,0-15-6.7-15-15s6.7-15,15-15s15,6.7,15,15S174.3,165,166,165z M166,145c-2.8,0-5,2.2-5,5   s2.2,5,5,5s5-2.2,5-5S168.8,145,166,145z"
       id="path55" /></g><g
     id="g57"><path
       class="st1"
       d="M200,200h-65v-5c0-12.1,8.1-25,31-25c20,0,34,10.3,34,25V200z M145.8,190h43c-3-6.1-11.6-10-22.8-10   C155.2,180,148.1,183.6,145.8,190z"
       id="path59" /></g></svg>