<?xml version="1.0" encoding="utf-8"?>
<!-- Generator: Adobe Illustrator 22.0.1, SVG Export Plug-In . SVG Version: 6.00 Build 0)  -->
<svg version="1.1" id="Layer_1" xmlns="http://www.w3.org/2000/svg" xmlns:xlink="http://www.w3.org/1999/xlink" x="0px" y="0px"
	 viewBox="0 0 400 400" style="enable-background:new 0 0 400 400;" xml:space="preserve">
<style type="text/css">
	.st0{fill:#00BF9A;}
	.st1{fill:#2C3E50;}
</style>
<g>
	<path class="st0" d="M229.6,189.6L371,48.1V55c0,7.7,6.3,14,14,14s14-6.3,14-14V10V1h-9h-45c-7.7,0-14,6.3-14,14s6.3,14,14,14h5.5
		L209.8,169.8c-5.5,5.5-5.5,14.3,0,19.8c2.6,2.6,6.2,4.1,9.9,4.1S226.9,192.2,229.6,189.6z M216.1,176.1L372.3,20H345
		c-2.8,0-5-2.2-5-5s2.2-5,5-5h45v45c0,2.8-2.2,5-5,5s-5-2.2-5-5V26.4L223.2,183.2c-1,1-2.3,1.5-3.5,1.5s-2.6-0.5-3.5-1.5
		C214.2,181.2,214.2,178.1,216.1,176.1z"/>
	<path class="st1" d="M395,190c2.8,0,5-2.2,5-5s-2.2-5-5-5h-33.3v-60H395c2.8,0,5-2.2,5-5s-2.2-5-5-5h-33.3V87c0-2.8-2.2-5-5-5
		s-5,2.2-5,5v23H329c-2.8,0-5,2.2-5,5s2.2,5,5,5h22.7v60h-60v-23.2c0-2.8-2.2-5-5-5s-5,2.2-5,5V180H259c-2.8,0-5,2.2-5,5s2.2,5,5,5
		h22.7v60h-60v-32.2c0-2.8-2.2-5-5-5s-5,2.2-5,5V395c0,2.8,2.2,5,5,5c0.1,0,0.1,0,0.2,0c0.1,0,0.1,0,0.2,0h178c2.8,0,5-2.2,5-5
		s-2.2-5-5-5h-33.3v-60H395c2.8,0,5-2.2,5-5s-2.2-5-5-5h-33.3v-60H395c2.8,0,5-2.2,5-5s-2.2-5-5-5h-33.3v-60H395z M281.7,260v60h-60
		v-60H281.7z M221.7,330h60v60h-60V330z M351.7,390h-60v-60h60V390z M351.7,320h-60v-60h60V320z M351.7,250h-60v-60h60V250z"/>
	<path class="st1" d="M189.2,371.1L189.2,371.1l-28.3-7.7V261l-0.1-21L179.3,36h-2.8c1.5-3.2,2.3-6.8,2.3-10.5c0-13.8-11.2-25-25-25
		s-25,11.2-25,25c0,3.7,0.8,7.3,2.3,10.5h-2.4l0.6,45.5c-7.3-7.7-17.6-12.5-29-12.5c-12,0-22.7,5.3-30,13.6
		c-0.6-22.1-1.5-41.6-1.5-41.8L68.6,36h-2.1c1.5-3.2,2.3-6.8,2.3-10.5c0-13.8-11.2-25-25-25s-25,11.2-25,25c0,3.7,0.8,7.3,2.3,10.5
		h-2.9l21.4,205.8l0.1,19.2v102.1l-28.3,7.7v0c-7.4,2-11.9,8.7-10.8,16.3c1,7.6,7.1,12.9,14.7,12.9h73.7l1.1-3.4
		c2.1-6.3,1.9-12.8-0.4-18.8V266h21v112.2c-2.3,5.9-2.5,12.5-0.4,18.8l1.1,3.4h73.7c7.7,0,13.7-5.3,14.7-12.9
		C201,379.8,196.6,373.1,189.2,371.1z M153.8,10.5c8.3,0,15,6.7,15,15s-6.7,15-15,15s-15-6.7-15-15S145.6,10.5,153.8,10.5z
		 M100.3,79c16.5,0,30,13.5,30,30s-13.5,30-30,30s-30-13.5-30-30S83.8,79,100.3,79z M43.8,10.5c8.3,0,15,6.7,15,15s-6.7,15-15,15
		s-15-6.7-15-15S35.6,10.5,43.8,10.5z M29.4,46h0.2c4.1,2.8,9,4.5,14.3,4.5s10.2-1.7,14.3-4.5H59c0.4,10.2,1.4,35.1,1.7,57.4
		c-0.3,1.8-0.4,3.7-0.4,5.6c0,2.1,0.2,4.2,0.5,6.3c0,0.3,0,0.7,0,1c0,0.2,0,1.4,0.7,2.6C66,136.2,81.7,149,100.3,149
		c18.5,0,34.2-12.7,38.7-29.8c0.5-0.7,0.8-1.7,0.8-2.9l0-0.9c0.3-2.1,0.5-4.2,0.5-6.4c0-2.5-0.2-5-0.7-7.4L138.9,46h0.6
		c4.1,2.8,9,4.5,14.3,4.5s10.2-1.7,14.3-4.5h0.2L152,225.8H48.1L29.4,46z M81.5,390H15.4c-4.1,0-4.7-3.5-4.8-4.2
		c-0.1-0.7-0.4-4.3,3.5-5.3v0l35.3-9.6l29.3,7.3C81.1,381.7,82.1,385.9,81.5,390z M79.8,256v112.1l-30-7.5V261l-0.1-10.2l-0.1-10
		l0-5h101l0,3.8l0.1,11.2l0.1,10.2v100.1l-30,7.5V256H79.8z M190.1,386.1c-0.1,0.7-0.8,4.2-4.8,4.2h-66.1c-0.5-4.1,0.4-8.1,2.6-11.7
		l29.8-7.4l35,9.5C190.5,381.8,190.2,385.4,190.1,386.1z"/>
</g>
</svg>
