<?xml version="1.0" encoding="utf-8"?>
<!-- Generator: Adobe Illustrator 22.0.1, SVG Export Plug-In . SVG Version: 6.00 Build 0)  -->
<svg version="1.1" id="Layer_1" xmlns="http://www.w3.org/2000/svg" xmlns:xlink="http://www.w3.org/1999/xlink" x="0px" y="0px"
	 viewBox="0 0 400 400" style="enable-background:new 0 0 400 400;" xml:space="preserve">
<style type="text/css">
	.st0{fill:#00BF9A;}
	.st1{fill:#2C3E50;}
</style>
<g>
	<path class="st0" d="M355,172H175c-2.8,0-5-2.2-5-5s2.2-5,5-5h180c2.8,0,5,2.2,5,5S357.8,172,355,172z"/>
</g>
<g>
	<path class="st0" d="M305,202H175c-2.8,0-5-2.2-5-5s2.2-5,5-5h130c2.8,0,5,2.2,5,5S307.8,202,305,202z"/>
</g>
<path class="st1" d="M189.3,371.1l-28.7-7.8V322h-10v39.1l-30,7.5V306H135v-10.5h-20.4l-13.9-55.6l-13.9,55.6H40.7v0H26.6l26.7-157
	c4.3-12.3,11.9-20.6,20.6-25.8l26.7,53.5l26.7-53.4c0,0,6.9-7.2,7-7.3c9.7-9.1,15.8-22.1,15.8-36.4c0-11.6-4-22.2-10.6-30.7l40-14.1
	L100.2-0.2L22,24.2l38.9,14C54.2,46.6,50.2,57.4,50.2,69c0,14.6,6.3,27.7,16.2,36.8c-10.4,7-18.4,17.3-22.7,29.8l-0.1,0.4
	L14.7,305.5h25.9v57.4l-29,7.9v0c-7.4,2-11.9,8.7-10.8,16.3c1,7.6,7.1,12.9,14.7,12.9h73.7l1.1-3.4c1.9-5.6,1.9-11.4,0.3-16.8v-74.2
	h3.9l6.1-24.4l6.1,24.4h3.9V379c-2,5.7-2.1,11.9-0.1,17.9l1.1,3.4h73.7c7.7,0,13.7-5.3,14.7-12.9S196.7,373.1,189.3,371.1z
	 M100.7,143.8L88.8,120h23.8L100.7,143.8z M53.5,24.8l46.7-14.5l47.5,14.5l-15.4,5.4l0-0.2l-29.9-10.3c-2.6-0.9-5.5,0.5-6.4,3.1
	c-0.9,2.6,0.5,5.5,3.1,6.4l18.3,6.3l-17.2,6.1L53.5,24.8z M60.2,69c0-10.5,4.1-20.1,10.8-27.3l29.2,10.5l22-7.8L122,69
	c0,2.8,2.2,5,5,5c0,0,0,0,0,0c2.7,0,5-2.2,5-5l0.2-24c5,6.7,8,15,8,24c0,22.1-17.9,40-40,40S60.2,91.1,60.2,69z M50.7,305.5h30v62.6
	l-30-7.5V305.5z M81.7,390H15.6c-4.1,0-4.7-3.5-4.8-4.2c-0.1-0.7-0.4-4.3,3.6-5.3v0l35.7-9.7l28.9,7.2
	C81.3,381.6,82.3,385.8,81.7,390z M190.3,386.1c-0.1,0.7-0.8,4.2-4.8,4.2h-66.1c-0.5-4.1,0.4-8.2,2.7-11.8l29.6-7.4l35.2,9.6v0
	C190.6,381.8,190.3,385.4,190.3,386.1z"/>
<g>
	<g>
		<path class="st0" d="M306.4,309.1c-1.8,0-3.6-0.4-5.4-1.1c-4.9-2-8.2-6.5-8.6-11.8c-0.2-2-1.7-3.5-3.6-3.6
			c-5.2-0.4-9.8-3.7-11.8-8.6s-1.2-10.4,2.2-14.4c1.3-1.5,1.3-3.7,0-5.2c-3.4-4-4.3-9.5-2.2-14.4s6.5-8.2,11.8-8.6
			c2-0.2,3.5-1.7,3.6-3.6c0.4-5.2,3.7-9.8,8.6-11.8c4.9-2,10.4-1.2,14.4,2.2c1.5,1.3,3.7,1.3,5.2,0c4-3.4,9.5-4.3,14.4-2.2
			c4.9,2,8.2,6.5,8.6,11.8c0.2,2,1.7,3.5,3.6,3.6c5.2,0.4,9.8,3.7,11.8,8.6s1.2,10.4-2.2,14.4c-1.3,1.5-1.3,3.7,0,5.2
			c3.4,4,4.3,9.5,2.2,14.4s-6.5,8.2-11.8,8.6c-2,0.2-3.5,1.7-3.6,3.6c-0.4,5.2-3.7,9.8-8.6,11.8c-4.9,2-10.4,1.2-14.4-2.2
			c-1.5-1.3-3.7-1.3-5.2,0C312.8,307.9,309.6,309.1,306.4,309.1z M306.4,234.9c-0.7,0-1.3,0.2-1.6,0.3c-0.7,0.3-2.3,1.2-2.5,3.4
			c-0.6,6.8-5.9,12.2-12.8,12.8c-2.2,0.2-3.1,1.8-3.4,2.5c-0.3,0.7-0.8,2.4,0.6,4.1c4.4,5.2,4.4,12.8,0,18.1
			c-1.4,1.7-0.9,3.4-0.6,4.1c0.3,0.7,1.2,2.3,3.4,2.5c6.8,0.6,12.2,5.9,12.8,12.8c0.2,2.2,1.8,3.1,2.5,3.4s2.4,0.8,4.1-0.6
			c5.2-4.4,12.8-4.4,18.1,0c1.7,1.4,3.4,0.9,4.1,0.6c0.7-0.3,2.3-1.2,2.5-3.4c0.6-6.8,5.9-12.2,12.8-12.8c2.2-0.2,3.1-1.8,3.4-2.5
			c0.3-0.7,0.8-2.4-0.6-4.1c-4.4-5.2-4.4-12.8,0-18.1c1.4-1.7,0.9-3.4,0.6-4.1c-0.3-0.7-1.2-2.3-3.4-2.5
			c-6.8-0.6-12.2-5.9-12.8-12.8c-0.2-2.2-1.8-3.1-2.5-3.4c-0.7-0.3-2.4-0.8-4.1,0.6h0c-5.2,4.4-12.8,4.4-18.1,0
			C308.1,235.2,307.2,234.9,306.4,234.9z M323.8,232.1L323.8,232.1L323.8,232.1z"/>
	</g>
	<path class="st0" d="M328,303.9v38.4l-10.4-6.8L308,342v-38.1c-4.1,0.7-8.4-1.5-10-5.5V361l19.7-13.5l20.3,13.2v-62.4
		C336.4,302.4,332.1,304.6,328,303.9z"/>
</g>
<g>
	<path class="st0" d="M298.1,317H144.9c-2.7,0-4.9-2.2-4.9-4.9V121.9c0-2.7,2.2-4.9,4.9-4.9h56.3c2.7,0,4.8-2.2,4.8-4.9
		c0,0,0,0,0-0.1s0,0,0-0.1c0-2.7-2.1-4.9-4.8-4.9h-66.3c-2.7,0-4.9,2.2-4.9,4.9v210.2c0,2.7,2.2,4.9,4.9,4.9h163.2
		c2.7,0,4.9-2.2,4.9-4.9v-0.2C303,319.2,300.8,317,298.1,317z"/>
	<path class="st0" d="M305.7,107c-0.4,3.5-1.3,6.8-2.6,10h84.4c1.4,0,2.5,1.1,2.5,2.5v195c0,1.4-1.1,2.5-2.5,2.5H333v10h64.7
		c1.3,0,2.3-1,2.3-2.3V109.3c0-1.3-1-2.3-2.3-2.3H305.7z"/>
</g>
<path class="st1" d="M266,57c-18.9,0-35.1,11.7-41.8,28.3C211.1,87.1,201,98.4,201,112c0,14.9,12.1,27,27,27c3.5,0,6.8-0.7,9.9-1.9
	c7.7,6.2,17.5,9.9,28.1,9.9c24.8,0,45-20.2,45-45S290.8,57,266,57z M228,129c-9.4,0-17-7.6-17-17c0-7,4.3-13.1,10.4-15.7
	c-0.2,1.9-0.4,3.7-0.4,5.7c0,10.1,3.3,19.4,8.9,26.9C229.3,129,228.7,129,228,129z M291,126.5V99c0-2.8-2.2-5-5-5s-5,2.2-5,5v34.6
	c-3.1,1.5-6.5,2.5-10,3V99c0-2.8-2.2-5-5-5s-5,2.2-5,5v37.6c-3.5-0.5-6.9-1.5-10-3V99c0-2.8-2.2-5-5-5s-5,2.2-5,5v27.5
	c-0.6-0.6-1.1-1.2-1.7-1.8c-5.2-6.1-8.3-14-8.3-22.6c0-2.3,0.2-4.5,0.6-6.6c0.6-3.4,1.8-6.5,3.3-9.5C240.8,74.7,252.5,67,266,67
	c19.3,0,35,15.7,35,35C301,111.5,297.2,120.1,291,126.5z"/>
</svg>
