<?xml version="1.0" encoding="utf-8"?>
<!-- Generator: Adobe Illustrator 22.0.1, SVG Export Plug-In . SVG Version: 6.00 Build 0)  -->
<svg version="1.1" id="Layer_1" xmlns="http://www.w3.org/2000/svg" xmlns:xlink="http://www.w3.org/1999/xlink" x="0px" y="0px"
	 viewBox="0 0 220 220" style="enable-background:new 0 0 220 220;" xml:space="preserve">
<style type="text/css">
	.st0{fill:#00BF9A;}
	.st1{fill:#2C3E50;}
</style>
<g>
	<path class="st0" d="M189.5,21.1l-0.8,4.7l-1,5.9L192,36l3.4,3.3l-4.7,0.7l-5.9,0.9l-2.7,5.4l-2.1,4.3l-2.1-4.3l-2.7-5.4l-5.9-0.9
		l-4.7-0.7L168,36l4.3-4.2l-1-5.9l-0.8-4.7l4.2,2.2l5.3,2.8l5.3-2.8L189.5,21.1 M204.7,0.2l-24.7,13l-24.7-13l4.7,27.5l-20,19.5
		l27.6,4l12.4,25l12.4-25l27.6-4l-20-19.5L204.7,0.2L204.7,0.2z"/>
</g>
<g>
	<path class="st1" d="M185,220H15c-8.3,0-15-6.7-15-15V35c0-8.3,6.7-15,15-15h130c2.8,0,5,2.2,5,5s-2.2,5-5,5H15c-2.8,0-5,2.2-5,5
		v170c0,2.8,2.2,5,5,5h170c2.8,0,5-2.2,5-5V74c0-2.8,2.2-5,5-5s5,2.2,5,5v131C200,213.3,193.3,220,185,220z"/>
</g>
<g>
	<path class="st1" d="M100,120.2c-16.5,0-30-13.5-30-30s13.5-30,30-30s30,13.5,30,30S116.5,120.2,100,120.2z M100,70.2
		c-11,0-20,9-20,20s9,20,20,20c11,0,20-9,20-20S111,70.2,100,70.2z"/>
</g>
<g>
	<path class="st1" d="M155,179.9H45v-5c0-15,5.8-27.1,16.8-34.8c9.4-6.6,22.6-10.2,38.2-10.2c15.6,0,28.9,3.5,38.2,10.2
		c11,7.8,16.8,19.8,16.8,34.8V179.9z M55.3,169.9h89.5c-2.9-26-28.9-30-44.7-30S58.2,144,55.3,169.9z"/>
</g>
</svg>
